<svg width="20" height="20" viewBox="0 0 20 20" fill="none" xmlns="http://www.w3.org/2000/svg">
<g clip-path="url(#clip0_437_7825)">
<mask id="mask0_437_7825" style="mask-type:alpha" maskUnits="userSpaceOnUse" x="0" y="0" width="20" height="20">
<rect width="20" height="20" fill="#D9D9D9"/>
</mask>
<g mask="url(#mask0_437_7825)">
<path d="M4 20C3.45 20 2.97917 19.8042 2.5875 19.4125C2.19583 19.0208 2 18.55 2 18C2 17.45 2.19583 16.9792 2.5875 16.5875C2.97917 16.1958 3.45 16 4 16H16C16.55 16 17.0208 16.1958 17.4125 16.5875C17.8042 16.9792 18 17.45 18 18C18 18.55 17.8042 19.0208 17.4125 19.4125C17.0208 19.8042 16.55 20 16 20H4ZM12.4375 9.45833L10.5417 7.5625L7.52083 10.5833L9.41667 12.4583L12.4375 9.45833ZM11.6042 6.5L13.5 8.39583L16.5 5.375L14.625 3.5L11.6042 6.5ZM10.0417 5.95833L14.0417 9.95833L10.4792 13.5208C10.1736 13.7986 9.82292 13.9479 9.42708 13.9688C9.03125 13.9896 8.69444 13.8611 8.41667 13.5833C8.27778 13.7222 8.125 13.8264 7.95833 13.8958C7.79167 13.9653 7.61181 14 7.41875 14H4.89583C4.72917 14 4.61806 13.9201 4.5625 13.7604C4.50694 13.6007 4.53472 13.4653 4.64583 13.3542L6.41667 11.5833C6.125 11.3056 5.98611 10.9618 6 10.5521C6.01389 10.1424 6.17361 9.79861 6.47917 9.52083L10.0417 5.95833ZM10.0417 5.95833L13.5625 2.4375C13.8542 2.14583 14.2083 2 14.625 2C15.0417 2 15.3945 2.14569 15.6835 2.43708L17.5625 4.3125C17.8403 4.61208 17.9792 4.96479 17.9792 5.37062C17.9792 5.77632 17.8403 6.13194 17.5625 6.4375L14.0417 9.95833L10.0417 5.95833Z" fill="#BAC8DE"/>
</g>
</g>
<defs>
<clipPath id="clip0_437_7825">
<rect width="20" height="20" fill="white"/>
</clipPath>
</defs>
</svg>
