<svg width="20" height="20" viewBox="0 0 20 20" fill="none" xmlns="http://www.w3.org/2000/svg">
<g clip-path="url(#clip0_437_7825)">
<mask id="mask0_437_7825" style="mask-type:alpha" maskUnits="userSpaceOnUse" x="0" y="0" width="20" height="20">
<rect width="20" height="20" fill="#D9D9D9"/>
</mask>
<g mask="url(#mask0_437_7825)">
<path d="M14.8125 12C14.6 12 14.4219 11.9285 14.2781 11.7856C14.1344 11.6427 14.0625 11.4656 14.0625 11.2544C14.0625 11.0431 14.1344 10.8646 14.2781 10.7188C14.4219 10.5729 14.6 10.5 14.8125 10.5H17.4583C17.375 10.3889 17.2743 10.3056 17.1562 10.25C17.0382 10.1944 16.9232 10.1403 16.8113 10.0877C16.3954 9.89035 15.9514 9.74306 15.4792 9.64583C15.0069 9.54861 14.5139 9.5 14 9.5H13.4167C13.2222 9.51389 13.0556 9.44792 12.9167 9.30208C12.7778 9.15625 12.7083 8.98264 12.7083 8.78125C12.7083 8.57986 12.7708 8.40972 12.8958 8.27083C13.0208 8.13194 13.1875 8.04861 13.3958 8.02083C13.4931 8.00694 13.5938 8 13.6979 8H14C14.6806 8 15.3472 8.07639 16 8.22917C16.6528 8.38194 17.2917 8.61806 17.9167 8.9375C18.25 9.10417 18.5139 9.33333 18.7083 9.625C18.9028 9.91667 19 10.2361 19 10.5833V11.25C19 11.4625 18.9281 11.6406 18.7844 11.7844C18.6406 11.9281 18.4625 12 18.25 12H14.8125ZM14 7C13.3056 7 12.7153 6.75694 12.2292 6.27083C11.7431 5.78472 11.5 5.19444 11.5 4.5C11.5 3.80556 11.7431 3.21528 12.2292 2.72917C12.7153 2.24306 13.3056 2 14 2C14.6944 2 15.2847 2.24306 15.7708 2.72917C16.2569 3.21528 16.5 3.80556 16.5 4.5C16.5 5.19444 16.2569 5.78472 15.7708 6.27083C15.2847 6.75694 14.6944 7 14 7ZM14 5.5C14.2833 5.5 14.5208 5.40417 14.7125 5.2125C14.9042 5.02083 15 4.78333 15 4.5C15 4.21667 14.9042 3.97917 14.7125 3.7875C14.5208 3.59583 14.2833 3.5 14 3.5C13.7167 3.5 13.4792 3.59583 13.2875 3.7875C13.0958 3.97917 13 4.21667 13 4.5C13 4.78333 13.0958 5.02083 13.2875 5.2125C13.4792 5.40417 13.7167 5.5 14 5.5ZM1.75 12C1.5375 12 1.35937 11.9281 1.21562 11.7844C1.07187 11.6406 1 11.4625 1 11.25V10.5833C1 10.2361 1.09722 9.91667 1.29167 9.625C1.48611 9.33333 1.75 9.10417 2.08333 8.9375C2.70833 8.61806 3.34722 8.38194 4 8.22917C4.65278 8.07639 5.31944 8 6 8H6.30208C6.40625 8 6.50694 8.00694 6.60417 8.02083C6.8125 8.04861 6.97917 8.13194 7.10417 8.27083C7.22917 8.40972 7.29167 8.57986 7.29167 8.78125C7.29167 8.98264 7.22222 9.15625 7.08333 9.30208C6.94444 9.44792 6.77778 9.51389 6.58333 9.5H6C5.48611 9.5 4.99306 9.54861 4.52083 9.64583C4.04861 9.74306 3.60458 9.89035 3.18875 10.0877C3.07681 10.1403 2.96181 10.1944 2.84375 10.25C2.72569 10.3056 2.625 10.3889 2.54167 10.5H5.1875C5.4 10.5 5.57813 10.5715 5.72188 10.7144C5.86563 10.8573 5.9375 11.0344 5.9375 11.2456C5.9375 11.4569 5.86563 11.6354 5.72188 11.7812C5.57813 11.9271 5.4 12 5.1875 12H1.75ZM6 7C5.30556 7 4.71528 6.75694 4.22917 6.27083C3.74306 5.78472 3.5 5.19444 3.5 4.5C3.5 3.80556 3.74306 3.21528 4.22917 2.72917C4.71528 2.24306 5.30556 2 6 2C6.69444 2 7.28472 2.24306 7.77083 2.72917C8.25694 3.21528 8.5 3.80556 8.5 4.5C8.5 5.19444 8.25694 5.78472 7.77083 6.27083C7.28472 6.75694 6.69444 7 6 7ZM6 5.5C6.28333 5.5 6.52083 5.40417 6.7125 5.2125C6.90417 5.02083 7 4.78333 7 4.5C7 4.21667 6.90417 3.97917 6.7125 3.7875C6.52083 3.59583 6.28333 3.5 6 3.5C5.71667 3.5 5.47917 3.59583 5.2875 3.7875C5.09583 3.97917 5 4.21667 5 4.5C5 4.78333 5.09583 5.02083 5.2875 5.2125C5.47917 5.40417 5.71667 5.5 6 5.5ZM10.0104 14.25C9.60069 14.25 9.24653 14.1111 8.94792 13.8333C8.64931 13.5556 8.5 13.2153 8.5 12.8125V10.9375C8.5 10.5347 8.64931 10.1944 8.94792 9.91667C9.24653 9.63889 9.60069 9.5 10.0104 9.5C10.42 9.5 10.7707 9.63889 11.0625 9.91667C11.3542 10.1944 11.5 10.5347 11.5 10.9375V12.8125C11.5 13.2153 11.3542 13.5556 11.0625 13.8333C10.7707 14.1111 10.42 14.25 10.0104 14.25ZM10 18C9.85556 18 9.73611 17.9528 9.64167 17.8583C9.54722 17.7639 9.5 17.6444 9.5 17.5V16.2083C8.79167 16.0972 8.18403 15.8056 7.67708 15.3333C7.17014 14.8611 6.82007 14.2861 6.62687 13.6083C6.58396 13.4528 6.61111 13.3125 6.70833 13.1875C6.80556 13.0625 6.9375 13 7.10417 13C7.21528 13 7.31715 13.0338 7.40979 13.1015C7.50229 13.1692 7.56014 13.2604 7.58333 13.375C7.73611 13.9583 8.03472 14.4167 8.47917 14.75C8.92361 15.0833 9.43403 15.25 10.0104 15.25C10.5868 15.25 11.0938 15.0833 11.5312 14.75C11.9688 14.4167 12.2639 13.9583 12.4167 13.375C12.4399 13.2604 12.4977 13.1692 12.5902 13.1015C12.6828 13.0338 12.7847 13 12.8958 13C13.0625 13 13.1944 13.0625 13.2917 13.1875C13.3889 13.3125 13.4173 13.4528 13.3769 13.6083C13.1951 14.2861 12.8472 14.8611 12.3333 15.3333C11.8194 15.8056 11.2083 16.0972 10.5 16.2083V17.5C10.5 17.6444 10.4528 17.7639 10.3583 17.8583C10.2639 17.9528 10.1444 18 10 18Z" fill="#BAC8DE"/>
</g>
</g>
<defs>
<clipPath id="clip0_437_7825">
<rect width="20" height="20" fill="white"/>
</clipPath>
</defs>
</svg>
